<svg width="256" height="256" viewBox="0 0 256 256" fill="none" xmlns="http://www.w3.org/2000/svg">
<path d="M247.74 107.973C244.769 96.4445 217.404 93.0332 179.402 97.6019C177.408 94.504 175.162 91.5847 172.687 88.8756L196.947 77.865C197.317 77.7116 197.653 77.4834 197.936 77.194C198.218 76.9045 198.44 76.5598 198.589 76.1803C198.739 75.8008 198.812 75.3944 198.805 74.9853C198.797 74.5762 198.71 74.1728 198.547 73.7991C198.384 73.4255 198.149 73.0893 197.857 72.8107C197.565 72.532 197.221 72.3166 196.846 72.1773C196.47 72.038 196.071 71.9776 195.673 71.9998C195.274 72.0219 194.884 72.1262 194.526 72.3064L168.052 84.3678C165.643 82.1866 163.075 80.196 160.371 78.4132L179.12 69.8697C179.49 69.7164 179.826 69.4882 180.108 69.1987C180.39 68.9093 180.613 68.5645 180.762 68.185C180.911 67.8055 180.985 67.3991 180.977 66.99C180.97 66.5809 180.882 66.1775 180.719 65.8038C180.557 65.4302 180.322 65.0941 180.03 64.8154C179.738 64.5368 179.394 64.3213 179.018 64.182C178.643 64.0427 178.244 63.9823 177.845 64.0045C177.447 64.0267 177.057 64.1309 176.698 64.3111L153.879 74.7125C144.538 70.0837 134.231 67.8733 123.863 68.275C113.494 68.6767 103.38 71.6783 94.4059 77.0168C85.4316 82.3553 77.871 89.8679 72.3862 98.8968C66.9014 107.926 63.6598 118.195 62.9452 128.806C27.5877 143.868 5.31835 160.559 8.25986 172.103C11.2311 183.905 39.7696 187.195 79.0789 182.184C69.1104 181.453 62.7372 178.986 61.6081 174.737C58.9191 164.199 90.0427 146.731 131.135 135.751C172.227 124.771 207.703 124.39 210.377 134.929C211.239 138.294 208.624 142.376 203.35 146.716C232.647 132.888 250.385 118.359 247.74 107.973Z" fill="#642EFF"/>
<path d="M143.516 178.597C175.588 170.014 199.89 156.387 197.795 148.159C195.7 139.932 168.001 140.219 135.929 148.802C103.856 157.384 79.5542 171.012 81.6494 179.239C83.7445 187.467 111.443 187.179 143.516 178.597Z" fill="#642EFF"/>
</svg>
