<svg width="167" height="42" viewBox="0 0 167 42" fill="none" xmlns="http://www.w3.org/2000/svg">
<path d="M166.5 5.50123C166.129 4.05897 162.705 3.6322 157.951 4.20377C157.702 3.8162 157.421 3.45099 157.111 3.11206L160.146 1.73458C160.192 1.71539 160.234 1.68684 160.27 1.65063C160.305 1.61442 160.333 1.57129 160.351 1.52382C160.37 1.47634 160.379 1.4255 160.378 1.37431C160.377 1.32313 160.367 1.27266 160.346 1.22592C160.326 1.17918 160.296 1.13712 160.26 1.10226C160.223 1.0674 160.18 1.04045 160.133 1.02302C160.086 1.00559 160.036 0.998036 159.987 1.00081C159.937 1.00358 159.888 1.01663 159.843 1.03917L156.531 2.54812C156.23 2.27523 155.908 2.0262 155.57 1.80317L157.916 0.734328C157.962 0.715145 158.004 0.686595 158.039 0.650384C158.075 0.614172 158.103 0.571043 158.121 0.523567C158.14 0.476092 158.149 0.425246 158.148 0.374064C158.147 0.322881 158.136 0.272412 158.116 0.22567C158.096 0.178929 158.066 0.136872 158.03 0.102011C157.993 0.0671506 157.95 0.0401985 157.903 0.0227679C157.856 0.00533732 157.806 -0.00221412 157.756 0.000560106C157.706 0.00333433 157.658 0.0163798 157.613 0.0389172L154.758 1.34019C153.589 0.761097 152.3 0.484571 151.003 0.534827C149.706 0.585083 148.44 0.96059 147.318 1.62846C146.195 2.29634 145.249 3.2362 144.563 4.36576C143.877 5.49531 143.471 6.7801 143.382 8.1076C138.958 9.99188 136.172 12.08 136.54 13.5242C136.912 15.0007 140.482 15.4123 145.4 14.7855C144.153 14.694 143.356 14.3854 143.214 13.8538C142.878 12.5354 146.772 10.3501 151.913 8.97639C157.053 7.60271 161.492 7.55508 161.826 8.8735C161.934 9.29456 161.607 9.80516 160.947 10.3482C164.612 8.6182 166.831 6.80061 166.5 5.50123Z" fill="#642EFF"/>
<path d="M153.461 14.3367C157.474 13.263 160.514 11.5582 160.252 10.5288C159.99 9.49953 156.525 9.53552 152.512 10.6092C148.5 11.6829 145.46 13.3878 145.722 14.4171C145.984 15.4464 149.449 15.4104 153.461 14.3367Z" fill="#642EFF"/>
<path d="M12.3529 29.7078C9.78742 28.73 9.39123 28.6194 9.39123 28.0487C9.39123 27.4781 9.94638 27.2946 10.7388 27.2946C12.6953 27.2946 14.6811 28.2448 16.0825 29.4137L19.6262 25.0649C17.6159 23.3053 14.6811 22.2094 11.3746 22.2094C6.32196 22.2094 3.04237 25.2007 3.04237 28.8707C3.04237 31.671 4.65648 32.9203 8.09504 34.225C10.7852 35.2581 11.135 35.4491 11.135 36.0474C11.135 36.5904 10.5798 36.8895 9.78742 36.8895C7.83091 36.8895 5.66164 36.0198 3.54617 34.1998L0 38.5461C2.24998 40.64 5.44887 41.9999 9.1271 41.9999C14.4415 41.9999 17.5107 39.0086 17.5107 35.1751C17.5107 32.2617 15.5004 30.9043 12.3529 29.7078Z" fill="#642EFF"/>
<path d="M36.5793 27.9211L37.9807 22.5392H20.8955L19.4941 27.9211H24.943L21.3724 41.5681H27.5598L31.1305 27.9211H36.5793Z" fill="#642EFF"/>
<path d="M42.3683 22.5392L29.5654 41.7038H36.3105L37.9246 39.1474H44.4031L44.721 41.7038H51.3071L48.5044 22.5392H42.3683ZM40.6784 34.6277L43.5618 30.0075L44.0656 34.6277H40.6784Z" fill="#642EFF"/>
<path d="M72.2268 28.547C72.2268 27.0513 71.8037 25.6386 70.7716 24.5778C69.5268 23.2983 67.36 22.5392 63.9483 22.5392H56.7288L51.7568 41.5681H57.9443L59.3725 36.1309H60.9084L62.9701 41.5681H69.6369L67.0714 35.231C70.7203 34.0646 72.2268 31.5107 72.2268 28.547ZM62.7866 31.5911H60.5367L61.5149 27.8658H63.716C64.5891 27.8658 65.198 28.0568 65.5404 28.4112C65.6693 28.5426 65.7711 28.6994 65.8396 28.8722C65.9081 29.045 65.9419 29.2302 65.9391 29.4167C65.9342 30.6133 64.8483 31.5911 62.7866 31.5911Z" fill="#642EFF"/>
<path d="M79.7135 30.3946L80.3469 27.9764H89.6574L91.0856 22.5392H75.5877L70.6133 41.5681H76.8032L78.4173 35.3441H87.065L88.3612 30.3946H79.7135Z" fill="#642EFF"/>
<path d="M98.7312 22.5392H92.5413L87.5693 41.5681H102.197L103.622 36.1309H95.185L98.7312 22.5392Z" fill="#642EFF"/>
<path d="M108.648 22.5392L103.676 41.5681H119.599L120.947 36.3496H111.108L111.663 34.2833H120.71L121.901 29.6882H112.854L113.356 27.7577H123.231L124.605 22.5392H108.648Z" fill="#642EFF"/>
<path d="M134.309 22.5392L132.861 27.7577H137.024L133.397 41.5681H139.587L143.214 27.7577H158.758L160.132 22.5392H150.008H134.309Z" fill="#642EFF"/>
<path d="M126.565 22.5392L121.495 41.6701H127.685L132.755 22.5392H126.565Z" fill="#642EFF"/>
</svg>
